<svg id="pinterest" xmlns="http://www.w3.org/2000/svg" width="16.517" height="20.531" viewBox="0 0 16.517 20.531">
  <g id="Group_1028" data-name="Group 1028" transform="translate(0)">
    <path id="Path_9693" data-name="Path 9693" d="M56.539,0C50.967,0,48,3.606,48,7.538c0,1.823,1.009,4.1,2.624,4.819.245.112.379.064.433-.166.048-.175.26-1.015.363-1.412a.366.366,0,0,0-.086-.357,4.705,4.705,0,0,1-.962-2.837,5.5,5.5,0,0,1,5.832-5.4c3.177,0,5.4,2.084,5.4,5.065,0,3.368-1.765,5.7-4.058,5.7a1.829,1.829,0,0,1-1.915-2.251,24.592,24.592,0,0,0,1.072-4.145A1.585,1.585,0,0,0,55.075,4.8c-1.292,0-2.341,1.292-2.341,3.027a4.35,4.35,0,0,0,.386,1.847s-1.278,5.215-1.516,6.189a13.983,13.983,0,0,0,.094,4.549.134.134,0,0,0,.244.063,16.217,16.217,0,0,0,2.1-4c.158-.586.8-2.964.8-2.964a3.5,3.5,0,0,0,2.963,1.427c3.893,0,6.707-3.456,6.707-7.744C64.507,3.076,61.023,0,56.539,0Z" transform="translate(-48.004)" fill="#fff"/>
  </g>
</svg>
