<svg id="twitter" xmlns="http://www.w3.org/2000/svg" width="22.966" height="18.66" viewBox="0 0 22.966 18.66">
  <g id="Group_913" data-name="Group 913" transform="translate(0 0)">
    <path id="Path_4519" data-name="Path 4519" d="M22.966,50.209a9.817,9.817,0,0,1-2.713.744,4.682,4.682,0,0,0,2.071-2.6,9.41,9.41,0,0,1-2.986,1.14,4.708,4.708,0,0,0-8.144,3.22,4.848,4.848,0,0,0,.109,1.074,13.327,13.327,0,0,1-9.7-4.925,4.709,4.709,0,0,0,1.447,6.293,4.65,4.65,0,0,1-2.127-.58v.052a4.73,4.73,0,0,0,3.772,4.626,4.7,4.7,0,0,1-1.234.155,4.164,4.164,0,0,1-.891-.08,4.753,4.753,0,0,0,4.4,3.28,9.46,9.46,0,0,1-5.838,2.008A8.821,8.821,0,0,1,0,64.547,13.255,13.255,0,0,0,7.223,66.66a13.308,13.308,0,0,0,13.4-13.4c0-.208-.007-.409-.017-.609A9.393,9.393,0,0,0,22.966,50.209Z" transform="translate(0 -48)" fill="#fff"/>
  </g>
</svg>
